<svg width="50" height="50" viewbox="0 0 50 50" xmlns="http://www.w3.org/2000/svg" class="ibz">
   
   <path stroke="#000000" id="svg_7" d="m25.48492,5.99969c-11.87415,0 -21.49992,7.89087 -21.49992,17.62493c0,3.32536 1.13797,6.43398 3.09596,9.08782l-3.09596,7.41928l8.61987,-2.41706c3.59202,2.20895 8.04257,3.53507 12.88004,3.53507c11.87416,0 21.50008,-7.89105 21.50008,-17.62511s-9.62593,-17.62493 -21.50008,-17.62493zm1.33306,27.59063l-3.02377,0l0,-3.17074l3.02377,0l0,3.17074zm-0.14748,-5.50728l-2.72893,0l-0.27023,-13.56799l3.2449,0l-0.24574,13.56799z" stroke-linecap="null" stroke-linejoin="null" stroke-dasharray="null" fill="#aa56ff"/>

  <path id="svg_8" d="m39.88,33.85469c-0.03866,0 -0.07,0.02351 -0.07,0.0525c0,0.00991 0.0037,0.01917 0.01008,0.02707l-0.01008,0.0221l0.02806,-0.0072c0.01169,0.00658 0.02618,0.01053 0.04193,0.01053c0.03866,0 0.07,-0.02351 0.07,-0.0525s-0.03134,-0.0525 -0.07,-0.0525zm0.00434,0.08218l-0.00984,0l0,-0.00945l0.00984,0l0,0.00945zm-0.00048,-0.0164l-0.00889,0l-0.00088,-0.04042l0.01056,0l-0.0008,0.04042z" stroke-linecap="null" stroke-linejoin="null" stroke-dasharray="null" stroke="#000000" fill="#aa56ff"/>
</svg>