<svg width="50" height="50" viewBox="0 0 50 50" xmlns="http://www.w3.org/2000/svg" class="ibz">
	<g>
	    <path stroke="#000000" id="svg_5" d="m18.64662,43.50723c2.25719,-2.35677 4.17274,-5.16395 4.98138,-8.3509c-2.41913,1.83918 -4.63807,4.79776 -8.01317,4.68567c-2.54793,0.14643 -5.58288,0.14885 -7.3766,-1.98227c-4.00776,-3.22264 -5.08447,-9.66463 -1.79335,-13.76626c2.25224,-2.96159 6.18502,-4.21733 9.79435,-3.77308c2.27407,-0.96485 -0.44453,-3.40839 -0.7181,-4.93317c-1.69275,-5.53121 2.29454,-12.16607 8.15763,-12.80298c4.20527,-0.60392 8.31655,2.11827 10.37414,5.65168c1.1182,2.47196 0.53582,5.27777 0.27492,7.84243c-0.87854,1.28873 -3.1288,4.40698 0.0821,4.16115c3.17489,-0.05032 6.5274,0.882 8.62069,3.40628c3.06191,3.40009 3.3427,9.01883 0.26196,12.49305c-1.62947,2.1162 -4.07467,3.8097 -6.84238,3.7157c-2.70897,0.27357 -5.64224,-0.31424 -7.56335,-2.37831c-0.81919,-0.57409 -2.82677,-2.7433 -2.82602,-2.26744c2.00653,4.17981 4.27547,8.52172 8.28944,11.11198c1.43423,1.15301 -2.18414,0.36019 -3.06056,0.59518c-5.30766,0.00498 -10.61532,0.0098 -15.92254,0.01432c1.0932,-1.14125 2.18655,-2.28206 3.27944,-3.423l0,0z" stroke-linecap="null" stroke-linejoin="null" stroke-dasharray="null" fill="#aa56ff"/>
	</g>
</svg>